<svg width="22" height="23" viewBox="0 0 22 23" fill="none" xmlns="http://www.w3.org/2000/svg">
<path d="M9.01639 2.36451C9.11905 2.39935 9.21988 2.44151 9.31797 2.48918L10.4941 3.06851C10.6515 3.146 10.8246 3.18629 11.0001 3.18629C11.1755 3.18629 11.3486 3.146 11.5061 3.06851L12.6821 2.48918C13.2819 2.19416 13.9743 2.14942 14.6071 2.36481C15.2398 2.5802 15.7612 3.03808 16.0564 3.63776L16.1242 3.78626L16.182 3.93935L16.6036 5.1796C16.7182 5.51693 16.9831 5.78093 17.3196 5.89551L18.5607 6.31718C18.9002 6.43269 19.2112 6.61931 19.4728 6.86457C19.7344 7.10984 19.9407 7.4081 20.0779 7.73945C20.2151 8.0708 20.28 8.4276 20.2683 8.78602C20.2565 9.14445 20.1685 9.49625 20.01 9.81793L19.4316 10.994C19.3541 11.1514 19.3138 11.3246 19.3138 11.5C19.3138 11.6755 19.3541 11.8486 19.4316 12.006L20.01 13.1821C20.1683 13.5037 20.2563 13.8555 20.2679 14.2138C20.2795 14.5721 20.2146 14.9288 20.0774 15.26C19.9403 15.5912 19.734 15.8894 19.4725 16.1346C19.2109 16.3798 18.9001 16.5664 18.5607 16.6819L17.3196 17.1036C17.1535 17.1602 17.0027 17.2542 16.8788 17.3784C16.7548 17.5025 16.661 17.6534 16.6046 17.8195L16.182 19.0607C16.0664 19.4001 15.8798 19.7109 15.6346 19.9724C15.3894 20.234 15.0913 20.4402 14.76 20.5774C14.4288 20.7146 14.0721 20.7795 13.7138 20.7678C13.3555 20.7562 13.0038 20.6683 12.6821 20.5099L11.5061 19.9315C11.3486 19.854 11.1755 19.8137 11.0001 19.8137C10.8246 19.8137 10.6515 19.854 10.4941 19.9315L9.31797 20.5099C8.99633 20.6683 8.64461 20.7562 8.28629 20.7678C7.92797 20.7795 7.57129 20.7146 7.24006 20.5774C6.90882 20.4402 6.61065 20.234 6.36546 19.9724C6.12026 19.7109 5.93366 19.4001 5.81813 19.0607L5.39647 17.8195C5.33974 17.6534 5.24559 17.5025 5.12131 17.3785C4.99702 17.2546 4.84591 17.1608 4.67963 17.1045L3.43938 16.6819C3.09992 16.5665 2.78899 16.38 2.52734 16.1348C2.26569 15.8897 2.05936 15.5915 1.9221 15.2603C1.78485 14.929 1.71984 14.5723 1.73142 14.2139C1.74299 13.8556 1.83088 13.5038 1.98922 13.1821L2.56855 12.006C2.64603 11.8486 2.68633 11.6755 2.68633 11.5C2.68633 11.3246 2.64603 11.1514 2.56855 10.994L1.98922 9.81793C1.83088 9.49623 1.74299 9.14446 1.73142 8.78609C1.71984 8.42772 1.78485 8.07101 1.9221 7.73977C2.05936 7.40852 2.26569 7.11037 2.52734 6.86521C2.78899 6.62005 3.09992 6.43353 3.43938 6.3181L4.67963 5.89643C4.84593 5.83982 4.99698 5.74573 5.12112 5.62144C5.24526 5.49714 5.33915 5.34597 5.39555 5.1796L5.81722 3.93935C5.92381 3.62584 6.09113 3.3364 6.30961 3.08758C6.52809 2.83875 6.79345 2.6354 7.09054 2.48916C7.38763 2.34291 7.71062 2.25663 8.04106 2.23524C8.37151 2.21386 8.70292 2.25778 9.01639 2.36451ZM14.18 8.7216L9.21255 13.6899L7.40305 11.5174C7.34607 11.4456 7.2753 11.3859 7.19491 11.3419C7.11452 11.2978 7.02613 11.2703 6.93494 11.2609C6.84375 11.2515 6.75161 11.2604 6.66392 11.2872C6.57624 11.3139 6.49479 11.3579 6.42436 11.4166C6.35394 11.4753 6.29596 11.5475 6.25384 11.6289C6.21173 11.7103 6.18632 11.7993 6.17911 11.8907C6.17191 11.9821 6.18306 12.074 6.2119 12.161C6.24074 12.2481 6.28669 12.3284 6.34705 12.3974L8.63872 15.1474C8.69982 15.2208 8.77553 15.2806 8.86104 15.3231C8.94654 15.3656 9.03996 15.3898 9.13533 15.3942C9.23071 15.3986 9.32596 15.3831 9.41501 15.3487C9.50406 15.3142 9.58496 15.2616 9.65255 15.1942L15.1526 9.69418C15.2201 9.63124 15.2743 9.55534 15.3119 9.47101C15.3494 9.38667 15.3696 9.29564 15.3713 9.20333C15.3729 9.11102 15.3559 9.01932 15.3213 8.93372C15.2868 8.84811 15.2353 8.77035 15.17 8.70506C15.1047 8.63978 15.027 8.58831 14.9413 8.55373C14.8557 8.51916 14.7641 8.50218 14.6717 8.50381C14.5794 8.50543 14.4884 8.52564 14.4041 8.56321C14.3197 8.60079 14.2438 8.65497 14.1809 8.72251L14.18 8.7216Z" fill="#0080FF"/>
</svg>
