<svg width="20" height="20" viewBox="0 0 20 20" fill="none" xmlns="http://www.w3.org/2000/svg">
<path d="M10.125 9.87499H10.625H13.5416C13.5748 9.87499 13.6066 9.88816 13.63 9.9116C13.6535 9.93504 13.6666 9.96684 13.6666 9.99999C13.6666 10.0331 13.6535 10.0649 13.63 10.0884C13.6066 10.1118 13.5748 10.125 13.5416 10.125H10.625H10.125V10.625V13.5417C10.125 13.5748 10.1118 13.6066 10.0883 13.63C10.0649 13.6535 10.0331 13.6667 9.99996 13.6667C9.96681 13.6667 9.93501 13.6535 9.91157 13.63C9.88813 13.6066 9.87496 13.5748 9.87496 13.5417V10.625V10.125H9.37496H6.45829C6.42514 10.125 6.39335 10.1118 6.36991 10.0884C6.34646 10.0649 6.33329 10.0331 6.33329 9.99999C6.33329 9.96684 6.34646 9.93504 6.3699 9.9116L6.01635 9.55805L6.36991 9.9116C6.39335 9.88816 6.42514 9.87499 6.45829 9.87499H9.37496H9.87496V9.37499V6.45832C9.87496 6.42517 9.88813 6.39338 9.91157 6.36994L9.57021 6.02857L9.91157 6.36993C9.93501 6.34649 9.96681 6.33332 9.99996 6.33332C10.0331 6.33332 10.0649 6.34649 10.0883 6.36994C10.1118 6.39338 10.125 6.42517 10.125 6.45832V9.37499V9.87499ZM9.99996 2.16666C14.3263 2.16666 17.8333 5.67363 17.8333 9.99999C17.8333 14.3263 14.3263 17.8333 9.99996 17.8333C5.6736 17.8333 2.16663 14.3263 2.16663 9.99999C2.16663 5.67363 5.6736 2.16666 9.99996 2.16666ZM9.99996 2.41666C7.98873 2.41666 6.05988 3.21561 4.63773 4.63776C3.21558 6.05991 2.41663 7.98876 2.41663 9.99999C2.41663 12.0112 3.21558 13.9401 4.63773 15.3622C6.05988 16.7844 7.98873 17.5833 9.99996 17.5833C12.0112 17.5833 13.94 16.7844 15.3622 15.3622C16.7843 13.9401 17.5833 12.0112 17.5833 9.99999C17.5833 7.98877 16.7843 6.05991 15.3622 4.63776C13.94 3.21561 12.0112 2.41666 9.99996 2.41666Z" fill="white" stroke="white"/>
</svg>
