<svg width="20" height="20" viewBox="0 0 20 20" fill="none" xmlns="http://www.w3.org/2000/svg">
<g clip-path="url(#clip0_0_2405)">
<path d="M9.6464 9.46967L9.99996 9.82322L10.3535 9.46967L12.4159 7.40727C12.4393 7.38383 12.4711 7.37066 12.5043 7.37066C12.5374 7.37066 12.5692 7.38383 12.5927 7.40727C12.6161 7.43071 12.6293 7.46251 12.6293 7.49566C12.6293 7.52881 12.6161 7.56061 12.5927 7.58405L10.5303 9.64644L10.1767 10L10.5303 10.3536L12.5927 12.4159C12.6161 12.4394 12.6293 12.4712 12.6293 12.5043C12.6293 12.5375 12.6161 12.5693 12.5927 12.5927C12.5692 12.6162 12.5374 12.6293 12.5043 12.6293C12.4711 12.6293 12.4393 12.6162 12.4159 12.5927L10.3535 10.5303L9.99996 10.1768L9.6464 10.5303L7.58401 12.5927C7.56057 12.6162 7.52877 12.6293 7.49562 12.6293C7.46247 12.6293 7.43067 12.6162 7.40723 12.5927C7.38379 12.5693 7.37062 12.5375 7.37062 12.5043C7.37062 12.4712 7.38379 12.4394 7.40723 12.4159L9.46963 10.3536L9.82318 10L9.46963 9.64644L7.40723 7.58405C7.38379 7.56061 7.37062 7.52881 7.37062 7.49566C7.37062 7.46251 7.38379 7.43072 7.40723 7.40727C7.43067 7.38383 7.46247 7.37066 7.49562 7.37066C7.52877 7.37066 7.56057 7.38383 7.58401 7.40727L9.6464 9.46967ZM4.46095 4.461C7.52015 1.4018 12.4798 1.4018 15.539 4.46099C18.5982 7.52019 18.5982 12.4798 15.539 15.539C12.4798 18.5982 7.52015 18.5982 4.46095 15.539C1.40176 12.4798 1.40176 7.52019 4.46095 4.461ZM4.63773 4.63777C3.21558 6.05992 2.41662 7.98877 2.41662 10C2.41662 12.0112 3.21558 13.9401 4.63773 15.3622C6.05988 16.7844 7.98873 17.5833 9.99996 17.5833C12.0112 17.5833 13.94 16.7844 15.3622 15.3622C16.7843 13.9401 17.5833 12.0112 17.5833 10C17.5833 7.98877 16.7843 6.05992 15.3622 4.63777C13.94 3.21562 12.0112 2.41666 9.99996 2.41666C7.98873 2.41666 6.05988 3.21562 4.63773 4.63777Z" fill="#EB477E" stroke="#EB477E"/>
</g>
<defs>
<clipPath id="clip0_0_2405">
<rect width="20" height="20" fill="white"/>
</clipPath>
</defs>
</svg>
