<svg width="20" height="20" viewBox="0 0 20 20" fill="none" xmlns="http://www.w3.org/2000/svg">
<path d="M8.60474 11.5536L8.95829 11.9071L9.31185 11.5536L13.0355 7.82995C13.0356 7.8298 13.0358 7.82966 13.0359 7.82951C13.0582 7.80762 13.0879 7.79486 13.1191 7.79376C13.1505 7.79265 13.1813 7.80344 13.2051 7.82398C13.2289 7.84451 13.2441 7.87328 13.2477 7.90454C13.2508 7.93155 13.245 7.9587 13.2313 7.98194L13.2007 8.01717L9.04641 12.1715L9.04636 12.1715C9.0252 12.1927 8.99714 12.2055 8.96729 12.2078C8.94153 12.2097 8.91592 12.2036 8.89391 12.1905L8.85781 12.1591L6.78822 10.0895C6.78808 10.0894 6.78793 10.0892 6.78778 10.0891C6.76589 10.0668 6.75313 10.0371 6.75203 10.0059C6.75093 9.97443 6.76172 9.94373 6.78225 9.91989C6.80278 9.89606 6.83155 9.88084 6.86281 9.87728C6.88982 9.8742 6.91697 9.88002 6.94022 9.89366L6.97544 9.92427L8.60474 11.5536ZM9.99996 2.16669C14.3263 2.16669 17.8333 5.67366 17.8333 10C17.8333 14.3264 14.3263 17.8334 9.99996 17.8334C5.6736 17.8334 2.16663 14.3264 2.16663 10C2.16663 5.67366 5.6736 2.16669 9.99996 2.16669ZM9.99996 2.41669C7.98873 2.41669 6.05988 3.21564 4.63773 4.63779C3.21558 6.05995 2.41663 7.9888 2.41663 10C2.41663 12.0112 3.21558 13.9401 4.63773 15.3622C6.05988 16.7844 7.98873 17.5834 9.99996 17.5834C12.0112 17.5834 13.94 16.7844 15.3622 15.3622C16.7843 13.9401 17.5833 12.0112 17.5833 10C17.5833 7.9888 16.7843 6.05995 15.3622 4.63779C13.94 3.21564 12.0112 2.41669 9.99996 2.41669Z" fill="white" stroke="white"/>
</svg>
