<svg width="24" height="24" viewBox="0 0 24 24" fill="none" xmlns="http://www.w3.org/2000/svg">
<path d="M7 6.25305V7.00005H4.25C3.65326 7.00005 3.08097 7.23711 2.65901 7.65906C2.23705 8.08102 2 8.65332 2 9.25005V17.7471C2 18.3438 2.23705 18.9161 2.65901 19.338C3.08097 19.76 3.65326 19.9971 4.25 19.9971H19.75C20.3467 19.9971 20.919 19.76 21.341 19.338C21.7629 18.9161 22 18.3438 22 17.7471V9.25005C22 8.65332 21.7629 8.08102 21.341 7.65906C20.919 7.23711 20.3467 7.00005 19.75 7.00005H17V6.25305C17 5.65631 16.7629 5.08402 16.341 4.66206C15.919 4.2401 15.3467 4.00305 14.75 4.00305H9.25C8.65326 4.00305 8.08097 4.2401 7.65901 4.66206C7.23705 5.08402 7 5.65631 7 6.25305ZM9.25 5.50305H14.75C14.9489 5.50305 15.1397 5.58207 15.2803 5.72272C15.421 5.86337 15.5 6.05414 15.5 6.25305V7.00005H8.5V6.25305C8.5 6.05414 8.57902 5.86337 8.71967 5.72272C8.86032 5.58207 9.05109 5.50305 9.25 5.50305ZM7 8.50305H8.5V8.50005H15.5V8.50305H17V8.50005H19.75C19.9489 8.50005 20.1397 8.57907 20.2803 8.71972C20.421 8.86037 20.5 9.05114 20.5 9.25005V11.5001H17.5V10.7501C17.5 10.5511 17.421 10.3604 17.2803 10.2197C17.1397 10.0791 16.9489 10.0001 16.75 10.0001C16.5511 10.0001 16.3603 10.0791 16.2197 10.2197C16.079 10.3604 16 10.5511 16 10.7501V11.5001H8V10.7501C8 10.5511 7.92098 10.3604 7.78033 10.2197C7.63968 10.0791 7.44891 10.0001 7.25 10.0001C7.05109 10.0001 6.86032 10.0791 6.71967 10.2197C6.57902 10.3604 6.5 10.5511 6.5 10.7501V11.5001H3.5V9.25005C3.5 9.05114 3.57902 8.86037 3.71967 8.71972C3.86032 8.57907 4.05109 8.50005 4.25 8.50005H7V8.50305ZM16 13.0001V14.2501C16 14.449 16.079 14.6397 16.2197 14.7804C16.3603 14.921 16.5511 15.0001 16.75 15.0001C16.9489 15.0001 17.1397 14.921 17.2803 14.7804C17.421 14.6397 17.5 14.449 17.5 14.2501V13.0001H20.5V17.7471C20.5 17.946 20.421 18.1367 20.2803 18.2774C20.1397 18.418 19.9489 18.4971 19.75 18.4971H4.25C4.05109 18.4971 3.86032 18.418 3.71967 18.2774C3.57902 18.1367 3.5 17.946 3.5 17.7471V13.0001H6.5V14.2501C6.5 14.449 6.57902 14.6397 6.71967 14.7804C6.86032 14.921 7.05109 15.0001 7.25 15.0001C7.44891 15.0001 7.63968 14.921 7.78033 14.7804C7.92098 14.6397 8 14.449 8 14.2501V13.0001H16Z" fill="#384747"/>
</svg>
