<svg width="28" height="28" viewBox="0 0 28 28" fill="none" xmlns="http://www.w3.org/2000/svg">
<path d="M3.94921 6.99655C5.58827 6.12123 7.5058 5.92554 9.28788 6.45172C10.7252 6.87405 11.5127 7.74672 11.8989 8.71505C12.2489 9.59472 12.2489 10.507 12.2489 11.0367V17.7917C12.2489 18.0238 12.1567 18.2463 11.9926 18.4104C11.8285 18.5745 11.6059 18.6667 11.3739 18.6667C11.1418 18.6667 10.9193 18.5745 10.7552 18.4104C10.5911 18.2463 10.4989 18.0238 10.4989 17.7917V17.4417C10.347 17.5318 10.193 17.6181 10.0369 17.7007C8.92621 18.2899 7.32205 18.8884 5.65371 18.5885C3.80571 18.256 2.64838 16.7277 2.38705 15.1445C2.11988 13.5345 2.75571 11.718 4.60605 10.8314C6.28605 10.0264 8.09438 10.0987 9.41505 10.3332C9.81405 10.4044 10.1769 10.4919 10.4919 10.5794C10.4767 10.1699 10.4277 9.75105 10.2725 9.36372C10.0789 8.87722 9.69971 8.39538 8.79788 8.13172C7.46299 7.73624 6.02636 7.87861 4.79505 8.52838C4.5922 8.63686 4.3548 8.66109 4.13422 8.59584C3.91364 8.53059 3.72763 8.38111 3.61643 8.17974C3.50524 7.97837 3.47782 7.74131 3.5401 7.51988C3.60238 7.29844 3.74936 7.11043 3.94921 6.99655ZM9.10938 12.0564C7.95905 11.8522 6.57188 11.83 5.36205 12.4099C4.32255 12.908 3.95271 13.8915 4.11371 14.8599C4.27821 15.8562 4.97821 16.6892 5.96405 16.8665C7.05838 17.0637 8.23555 16.6752 9.21671 16.1549C9.66453 15.9159 10.0929 15.6421 10.4977 15.3359V12.411C10.0442 12.2591 9.58018 12.1406 9.10938 12.0564ZM19.2325 8.21105C19.3416 8.24719 19.4425 8.30448 19.5295 8.37962C19.6164 8.45477 19.6877 8.54631 19.7393 8.64902C19.7909 8.75172 19.8217 8.86358 19.83 8.9782C19.8384 9.09282 19.8241 9.20797 19.7879 9.31705C19.6829 9.63205 19.572 10.0287 19.4717 10.4137C20.5777 10.311 21.6534 10.15 22.5494 9.94005C22.662 9.9114 22.7793 9.90549 22.8943 9.92266C23.0092 9.93983 23.1196 9.97974 23.219 10.0401C23.3184 10.1004 23.4048 10.1799 23.4731 10.274C23.5414 10.368 23.5902 10.4748 23.6168 10.5879C23.6434 10.7011 23.6472 10.8184 23.6279 10.9331C23.6087 11.0477 23.5667 11.1574 23.5046 11.2557C23.4425 11.3539 23.3614 11.4388 23.2661 11.5054C23.1708 11.572 23.0632 11.6189 22.9495 11.6434C21.8144 11.9105 20.4389 12.1007 19.0575 12.2045C18.9292 12.8415 18.8312 13.4237 18.7577 13.9545C19.3914 13.7695 20.0483 13.676 20.7084 13.6769C20.7126 13.4448 20.8088 13.2239 20.9758 13.0628C21.1428 12.9016 21.3671 12.8135 21.5991 12.8176C21.8312 12.8218 22.0521 12.918 22.2132 13.0851C22.3744 13.2521 22.4626 13.4763 22.4584 13.7084L22.4549 13.9674C23.1221 14.1903 23.7309 14.56 24.2364 15.0492C24.742 15.5384 25.1314 16.1347 25.3762 16.7942C25.5946 17.383 25.6913 18.01 25.6604 18.6373C25.6295 19.2646 25.4717 19.879 25.1965 20.4436C24.6179 21.6394 23.5165 22.6532 21.8984 23.275C21.6827 23.3541 21.4446 23.3451 21.2355 23.2501C21.0264 23.1551 20.863 22.9817 20.7806 22.7673C20.6982 22.5529 20.7034 22.3147 20.7951 22.1041C20.8868 21.8936 21.0576 21.7275 21.2707 21.6417C22.5342 21.1564 23.2634 20.4214 23.6215 19.6817C23.794 19.3293 23.893 18.9454 23.9124 18.5535C23.9319 18.1616 23.8714 17.7698 23.7347 17.402C23.466 16.6866 22.9321 16.102 22.2437 15.7699C21.8677 17.5826 20.9359 19.2331 19.5779 20.4914C19.6444 20.6454 19.7109 20.8087 19.7762 20.986C19.8128 21.0951 19.8276 21.2102 19.8197 21.3249C19.8118 21.4397 19.7814 21.5517 19.7303 21.6547C19.6791 21.7576 19.6081 21.8495 19.5214 21.9251C19.4347 22.0006 19.334 22.0583 19.225 22.095C19.116 22.1316 19.0008 22.1464 18.8861 22.1385C18.7714 22.1306 18.6593 22.1002 18.5563 22.049C18.4534 21.9978 18.3615 21.9268 18.2859 21.8402C18.2104 21.7535 18.1527 21.6527 18.116 21.5437C17.6626 21.796 17.1755 21.9822 16.6694 22.0967C15.8294 22.2775 14.8529 22.2122 14.1844 21.5297C13.1752 20.496 13.23 18.8732 13.9464 17.514C14.5029 16.4547 15.4899 15.449 16.9074 14.6989C16.9774 13.9825 17.0905 13.1845 17.2574 12.2909C16.4944 12.3072 15.764 12.2932 15.106 12.2477C14.879 12.2262 14.6694 12.1169 14.5217 11.943C14.3741 11.7692 14.3002 11.5446 14.3157 11.3171C14.3312 11.0896 14.4349 10.8771 14.6048 10.7249C14.7746 10.5728 14.9972 10.4929 15.225 10.5024C15.9507 10.5514 16.7779 10.5607 17.6365 10.5304C17.7719 9.97972 17.9539 9.28555 18.1265 8.76638C18.1627 8.65729 18.22 8.55639 18.2951 8.46943C18.3703 8.38248 18.4618 8.31118 18.5645 8.25962C18.6672 8.20805 18.7791 8.17721 18.8937 8.16888C19.0083 8.16055 19.1235 8.17488 19.2325 8.21105ZM16.8315 16.8117C16.1945 17.2935 15.7582 17.8267 15.4945 18.3284C14.9765 19.3119 15.1574 20.0201 15.4362 20.3059C15.5004 20.3724 15.7372 20.5065 16.3019 20.3852C16.7044 20.2989 17.0859 20.1495 17.4417 19.95C17.2432 19.4309 17.0925 18.8947 16.9914 18.3482C16.9009 17.8406 16.8475 17.3271 16.8315 16.8117ZM18.879 18.7484C19.6892 17.7905 20.2549 16.6503 20.5275 15.4257C19.9998 15.4482 19.478 15.5464 18.9782 15.7174C18.8449 15.7609 18.7126 15.8076 18.5815 15.8574C18.5463 16.5861 18.5905 17.3164 18.7134 18.0355C18.7612 18.3004 18.8172 18.5349 18.879 18.7484Z" fill="black"/>
</svg>
