<svg width="36" height="36" viewBox="0 0 36 36" fill="none" xmlns="http://www.w3.org/2000/svg">
<path d="M4.12961 27H31.8796C32.1645 27.0005 32.4386 27.109 32.6466 27.3037C32.8546 27.4985 32.981 27.7648 33.0002 28.0491C33.0194 28.3333 32.9301 28.6143 32.7502 28.8353C32.5704 29.0562 32.3134 29.2007 32.0311 29.2395L31.8796 29.25H4.12961C3.84254 29.2529 3.56522 29.146 3.35443 28.9511C3.14364 28.7562 3.01533 28.4881 2.99578 28.2017C2.97622 27.9153 3.0669 27.6322 3.24925 27.4105C3.43159 27.1888 3.69181 27.0451 3.97661 27.009L4.12961 27H31.8796H4.12961ZM4.12961 17.2545H31.8796C32.1645 17.255 32.4386 17.3635 32.6466 17.5582C32.8546 17.753 32.981 18.0193 33.0002 18.3036C33.0194 18.5878 32.9301 18.8688 32.7502 19.0898C32.5704 19.3107 32.3134 19.4552 32.0311 19.494L31.8796 19.5045H4.12961C3.84254 19.5074 3.56522 19.4005 3.35443 19.2056C3.14364 19.0107 3.01533 18.7426 2.99578 18.4562C2.97622 18.1698 3.0669 17.8867 3.24925 17.665C3.43159 17.4433 3.69181 17.2996 3.97661 17.2635L4.12961 17.2545H31.8796H4.12961ZM4.12811 7.50452H31.8781C32.1631 7.5046 32.4375 7.61288 32.6458 7.80748C32.8541 8.00207 32.9807 8.26846 33.0001 8.55284C33.0196 8.83721 32.9303 9.11835 32.7505 9.33947C32.5706 9.56058 32.3135 9.70516 32.0311 9.74402L31.8781 9.75452H4.12811C3.84307 9.75443 3.56869 9.64615 3.36042 9.45156C3.15214 9.25697 3.0255 8.99057 3.00607 8.7062C2.98664 8.42182 3.07588 8.14068 3.25576 7.91957C3.43563 7.69846 3.69273 7.55387 3.97511 7.51502L4.12811 7.50452H31.8781H4.12811Z" fill="#0080FF"/>
</svg>
