<svg width="28" height="28" viewBox="0 0 28 28" fill="none" xmlns="http://www.w3.org/2000/svg">
<g clip-path="url(#clip0_575_2272)">
<path d="M14 2.32862C16.2711 2.32564 18.4541 3.20694 20.0865 4.78581C21.7189 6.36468 22.6726 8.51707 22.7453 10.787L22.75 11.0786V15.8585L24.36 19.5405C24.4572 19.7623 24.4975 20.0049 24.4773 20.2462C24.4572 20.4876 24.3772 20.7201 24.2446 20.9228C24.112 21.1254 23.9309 21.2918 23.7179 21.407C23.5048 21.5221 23.2664 21.5823 23.0242 21.5821L17.5 21.5856C17.5012 22.4968 17.147 23.3725 16.5127 24.0266C15.8784 24.6808 15.0141 25.0618 14.1033 25.0887C13.1925 25.1156 12.3072 24.7862 11.6354 24.1706C10.9636 23.5551 10.5584 22.7018 10.5058 21.7921L10.5 21.5821H4.98751C4.74579 21.5818 4.50792 21.5215 4.29527 21.4066C4.08262 21.2917 3.90185 21.1257 3.76918 20.9236C3.63652 20.7216 3.55612 20.4897 3.5352 20.2489C3.51428 20.0081 3.5535 19.7659 3.64934 19.544L5.25001 15.8596V11.0786C5.25001 6.23112 9.16068 2.32862 14 2.32862ZM15.75 21.5833L12.25 21.5856C12.2499 22.0351 12.4228 22.4675 12.7329 22.7929C13.0429 23.1184 13.4663 23.3121 13.9153 23.3339C14.3643 23.3556 14.8045 23.2038 15.1445 22.9098C15.4846 22.6158 15.6985 22.2022 15.7418 21.7548L15.75 21.5833ZM14 4.07862C10.1267 4.07862 7.00001 7.19829 7.00001 11.0786V16.2236L5.43201 19.8333H22.5785L21 16.2248V11.0938L20.9965 10.8313C20.9359 9.01741 20.1718 7.29831 18.8659 6.03794C17.56 4.77758 15.8149 4.07488 14 4.07862Z" fill="black"/>
<path d="M25.1307 3.45262C23.8805 2.20238 22.1848 1.5 20.4167 1.5C18.6486 1.5 16.9529 2.20238 15.7026 3.45262C14.4524 4.70286 13.75 6.39856 13.75 8.16667C13.75 9.93478 14.4524 11.6305 15.7026 12.8807C16.9529 14.131 18.6486 14.8333 20.4167 14.8333C22.1848 14.8333 23.8805 14.131 25.1307 12.8807C26.381 11.6305 27.0833 9.93478 27.0833 8.16667C27.0833 6.39856 26.381 4.70286 25.1307 3.45262Z" fill="#00CFFF" stroke="white" stroke-width="4"/>
</g>
<defs>
<clipPath id="clip0_575_2272">
<rect width="28" height="28" fill="white"/>
</clipPath>
</defs>
</svg>
