<svg width="24" height="24" viewBox="0 0 24 24" fill="none" xmlns="http://www.w3.org/2000/svg">
<path d="M11.25 6.74998C11.25 6.55106 11.329 6.3603 11.4697 6.21965C11.6103 6.07899 11.8011 5.99998 12 5.99998C12.1989 5.99998 12.3897 6.07899 12.5303 6.21965C12.671 6.3603 12.75 6.55106 12.75 6.74998V8.24998C12.75 8.44889 12.671 8.63965 12.5303 8.78031C12.3897 8.92096 12.1989 8.99998 12 8.99998C11.8011 8.99998 11.6103 8.92096 11.4697 8.78031C11.329 8.63965 11.25 8.44889 11.25 8.24998V6.74998ZM16.28 8.21598C16.1394 8.07553 15.9488 7.99664 15.75 7.99664C15.5512 7.99664 15.3606 8.07553 15.22 8.21598L14.159 9.27598C14.0873 9.34513 14.0302 9.42786 13.9908 9.51934C13.9515 9.61083 13.9307 9.70923 13.9298 9.80882C13.9289 9.9084 13.9478 10.0072 13.9855 10.0994C14.0232 10.1915 14.0788 10.2753 14.1492 10.3458C14.2196 10.4162 14.3033 10.4719 14.3955 10.5097C14.4876 10.5475 14.5864 10.5665 14.6859 10.5657C14.7855 10.5648 14.884 10.5442 14.9755 10.5049C15.067 10.4657 15.1498 10.4086 15.219 10.337L16.28 9.27698C16.4205 9.13635 16.4993 8.94573 16.4993 8.74698C16.4993 8.54823 16.4205 8.3576 16.28 8.21698V8.21598ZM8.78 8.21598C8.63782 8.0835 8.44978 8.01137 8.25548 8.0148C8.06118 8.01823 7.87579 8.09694 7.73838 8.23435C7.60097 8.37177 7.52225 8.55715 7.51883 8.75145C7.5154 8.94576 7.58752 9.1338 7.72 9.27598L8.78 10.337C8.84915 10.4086 8.93188 10.4658 9.02337 10.5052C9.11485 10.5445 9.21326 10.5653 9.31284 10.5662C9.41242 10.5671 9.51119 10.5481 9.60338 10.5105C9.69557 10.4728 9.77934 10.4172 9.84979 10.3468C9.92024 10.2764 9.97597 10.1927 10.0137 10.1005C10.0515 10.0084 10.0705 9.90962 10.0697 9.81003C10.0689 9.71045 10.0482 9.61202 10.009 9.5205C9.9697 9.42898 9.9126 9.3462 9.841 9.27698L8.781 8.21698L8.78 8.21598ZM12 2.00098C13.9228 2.00098 15.7669 2.76481 17.1265 4.12445C18.4862 5.48409 19.25 7.32816 19.25 9.25098C19.25 11.347 18.35 13.271 16.587 14.993C16.5104 15.0678 16.4507 15.1582 16.412 15.258L16.38 15.361L15.25 20.256C15.1422 20.7229 14.8881 21.1431 14.5247 21.4556C14.1614 21.768 13.7078 21.9563 13.23 21.993L13.057 22H10.943C10.4638 22 9.99721 21.847 9.61103 21.5634C9.22486 21.2797 8.93932 20.8802 8.796 20.423L8.751 20.256L7.621 15.361C7.58894 15.2211 7.51745 15.0934 7.415 14.993C5.735 13.353 4.838 11.53 4.756 9.54898L4.75 9.25098L4.754 9.01098C4.81653 7.13092 5.60734 5.34878 6.9594 4.04094C8.31146 2.7331 10.1189 2.00197 12 2.00198V2.00098ZM14.115 18.499H9.884L10.213 19.919C10.2473 20.0667 10.3256 20.2005 10.4376 20.3028C10.5495 20.4051 10.6898 20.471 10.84 20.492L10.943 20.5H13.057C13.2089 20.4998 13.3571 20.4535 13.4821 20.3673C13.6071 20.281 13.7029 20.1589 13.757 20.017L13.787 19.918L14.115 18.499ZM12 3.50098C10.5131 3.50092 9.08391 4.07689 8.01254 5.10799C6.94117 6.13908 6.31089 7.54513 6.254 9.03098L6.25 9.25098L6.257 9.52798C6.333 11.091 7.057 12.548 8.463 13.92C8.727 14.178 8.923 14.496 9.034 14.846L9.083 15.024L9.538 16.999H11.25V10.75C11.25 10.5511 11.329 10.3603 11.4697 10.2196C11.6103 10.079 11.8011 9.99998 12 9.99998C12.1989 9.99998 12.3897 10.079 12.5303 10.2196C12.671 10.3603 12.75 10.5511 12.75 10.75V17H14.461L14.919 15.024C15.0015 14.6652 15.1708 14.3321 15.412 14.054L15.539 13.921C16.943 12.548 17.667 11.093 17.743 9.52898L17.75 9.25198L17.746 9.03198C17.6896 7.54577 17.0596 6.13923 15.9881 5.10771C14.9167 4.07619 13.4873 3.50094 12 3.50098Z" fill="#384747"/>
</svg>
