<svg width="24" height="24" viewBox="0 0 24 24" fill="none" xmlns="http://www.w3.org/2000/svg">
<path d="M20.9519 3.04801C20.2809 2.37702 19.3708 2.00006 18.4219 2.00006C17.4729 2.00006 16.5629 2.37702 15.8919 3.04801L3.93987 15C3.53366 15.4062 3.24808 15.9172 3.11487 16.476L2.01987 21.078C1.99022 21.2027 1.993 21.3328 2.02794 21.4561C2.06288 21.5794 2.12883 21.6916 2.21948 21.7822C2.31013 21.8727 2.42246 21.9385 2.54577 21.9734C2.66908 22.0082 2.79925 22.0108 2.92387 21.981L7.52487 20.885C8.08405 20.752 8.59536 20.4664 9.00187 20.06L20.9519 8.11C21.6229 7.439 21.9998 6.52894 21.9998 5.58C21.9998 4.63107 21.6229 3.72101 20.9519 3.05V3.04801ZM16.9519 4.108C17.1449 3.91496 17.3741 3.76183 17.6263 3.65736C17.8785 3.55288 18.1489 3.49911 18.4219 3.49911C18.6949 3.49911 18.9652 3.55288 19.2174 3.65736C19.4696 3.76183 19.6988 3.91496 19.8919 4.108C20.0849 4.30105 20.238 4.53022 20.3425 4.78245C20.447 5.03467 20.5008 5.305 20.5008 5.57801C20.5008 5.85101 20.447 6.12134 20.3425 6.37356C20.238 6.62579 20.0849 6.85496 19.8919 7.04801L18.9999 7.939L16.0599 5.00001L16.9519 4.10901V4.108ZM14.9999 6.06201L17.9399 9L7.93987 19C7.72987 19.21 7.46587 19.357 7.17687 19.426L3.76087 20.24L4.57387 16.824C4.64287 16.534 4.79087 16.27 5.00087 16.06L14.9999 6.06001V6.06201Z" fill="#0045F6"/>
</svg>
