<svg width="24" height="24" viewBox="0 0 24 24" fill="none" xmlns="http://www.w3.org/2000/svg">
<path d="M17.4999 12C18.9586 12 20.3575 12.5795 21.389 13.6109C22.4204 14.6424 22.9999 16.0413 22.9999 17.5C22.9999 18.9587 22.4204 20.3576 21.389 21.3891C20.3575 22.4205 18.9586 23 17.4999 23C16.0412 23 14.6423 22.4205 13.6108 21.3891C12.5794 20.3576 11.9999 18.9587 11.9999 17.5C11.9999 16.0413 12.5794 14.6424 13.6108 13.6109C14.6423 12.5795 16.0412 12 17.4999 12ZM12.0229 14C11.7232 14.4675 11.4849 14.9716 11.3139 15.5H4.25291C4.15438 15.4999 4.05679 15.5192 3.96574 15.5568C3.87468 15.5945 3.79195 15.6497 3.72228 15.7194C3.65261 15.7891 3.59737 15.8718 3.55973 15.9628C3.52208 16.0539 3.50277 16.1515 3.50291 16.25V16.827C3.50291 17.362 3.69491 17.88 4.04291 18.287C5.29591 19.756 7.26291 20.501 9.99991 20.501C10.5969 20.501 11.1569 20.466 11.6799 20.395C11.9259 20.89 12.2329 21.349 12.5919 21.762C11.7969 21.922 10.9319 22.002 9.99991 22.002C6.85391 22.002 4.46791 21.096 2.90191 19.262C2.32229 18.5831 2.00388 17.7197 2.00391 16.827V16.249C2.00391 15.6525 2.24085 15.0805 2.66262 14.6587C3.08439 14.237 3.65643 14 4.25291 14H12.0229ZM17.4999 14L17.4099 14.008C17.31 14.0263 17.218 14.0745 17.1462 14.1463C17.0744 14.2181 17.0262 14.3101 17.0079 14.41L16.9999 14.5V17H14.5039L14.4139 17.008C14.314 17.0263 14.222 17.0745 14.1502 17.1463C14.0784 17.2181 14.0302 17.3101 14.0119 17.41L14.0039 17.5L14.0119 17.59C14.0302 17.6899 14.0784 17.7819 14.1502 17.8537C14.222 17.9255 14.314 17.9738 14.4139 17.992L14.5039 18H16.9999V20.5L17.0079 20.59C17.0262 20.6899 17.0744 20.7819 17.1462 20.8537C17.218 20.9255 17.31 20.9738 17.4099 20.992L17.4999 21L17.5899 20.992C17.6898 20.9738 17.7818 20.9255 17.8536 20.8537C17.9254 20.7819 17.9737 20.6899 17.9919 20.59L17.9999 20.5V18H20.5039L20.5939 17.992C20.6938 17.9738 20.7858 17.9255 20.8576 17.8537C20.9294 17.7819 20.9777 17.6899 20.9959 17.59L21.0039 17.5L20.9959 17.41C20.9777 17.3101 20.9294 17.2181 20.8576 17.1463C20.7858 17.0745 20.6938 17.0263 20.5939 17.008L20.5039 17H17.9999V14.5L17.9919 14.41C17.9737 14.3101 17.9254 14.2181 17.8536 14.1463C17.7818 14.0745 17.6898 14.0263 17.5899 14.008L17.4999 14ZM9.99991 2.005C10.6565 2.005 11.3067 2.13433 11.9133 2.38561C12.52 2.63688 13.0711 3.00518 13.5354 3.46947C13.9997 3.93376 14.368 4.48496 14.6193 5.09159C14.8706 5.69822 14.9999 6.3484 14.9999 7.005C14.9999 7.66161 14.8706 8.31179 14.6193 8.91842C14.368 9.52505 13.9997 10.0762 13.5354 10.5405C13.0711 11.0048 12.52 11.3731 11.9133 11.6244C11.3067 11.8757 10.6565 12.005 9.99991 12.005C8.67382 12.005 7.40205 11.4782 6.46437 10.5405C5.52669 9.60286 4.99991 8.33109 4.99991 7.005C4.99991 5.67892 5.52669 4.40715 6.46437 3.46947C7.40205 2.53179 8.67382 2.005 9.99991 2.005ZM9.99991 3.505C9.54028 3.505 9.08515 3.59554 8.66051 3.77143C8.23588 3.94732 7.85004 4.20513 7.52503 4.53013C7.20003 4.85514 6.94222 5.24097 6.76633 5.66561C6.59044 6.09025 6.49991 6.54538 6.49991 7.005C6.49991 7.46463 6.59044 7.91976 6.76633 8.3444C6.94222 8.76904 7.20003 9.15487 7.52503 9.47988C7.85004 9.80488 8.23588 10.0627 8.66051 10.2386C9.08515 10.4145 9.54028 10.505 9.99991 10.505C10.9282 10.505 11.8184 10.1363 12.4748 9.47988C13.1312 8.8235 13.4999 7.93326 13.4999 7.005C13.4999 6.07675 13.1312 5.18651 12.4748 4.53013C11.8184 3.87375 10.9282 3.505 9.99991 3.505Z" fill="#384747"/>
</svg>
