<svg width="24" height="24" viewBox="0 0 24 24" fill="none" xmlns="http://www.w3.org/2000/svg">
<path d="M18.25 3.50998C18.4489 3.50998 18.6397 3.43096 18.7803 3.29031C18.921 3.14966 19 2.95889 19 2.75998C19 2.56107 18.921 2.3703 18.7803 2.22965C18.6397 2.089 18.4489 2.00998 18.25 2.00998L5.25 2.00598C5.05109 2.00598 4.86032 2.085 4.71967 2.22565C4.57902 2.3663 4.5 2.55707 4.5 2.75598C4.5 2.95489 4.57902 3.14566 4.71967 3.28631C4.86032 3.42696 5.05109 3.50598 5.25 3.50598L18.25 3.50998ZM11.648 21.998L11.75 22.005C11.9314 22.0049 12.1066 21.9392 12.2432 21.8198C12.3798 21.7005 12.4686 21.5357 12.493 21.356L12.5 21.255L12.499 7.56998L16.221 11.29C16.348 11.417 16.5163 11.4942 16.6955 11.5076C16.8746 11.521 17.0525 11.4697 17.197 11.363L17.282 11.29C17.4091 11.1628 17.4863 10.9942 17.4996 10.8149C17.5128 10.6355 17.4611 10.4574 17.354 10.313L17.281 10.229L12.284 5.23298C12.157 5.10596 11.9887 5.02874 11.8095 5.01534C11.6304 5.00194 11.4525 5.05327 11.308 5.15998L11.223 5.23198L6.22 10.23C6.08546 10.3636 6.00655 10.5433 5.99915 10.7328C5.99176 10.9223 6.05642 11.1076 6.18013 11.2513C6.30384 11.395 6.47741 11.4866 6.6659 11.5075C6.85439 11.5284 7.0438 11.4771 7.196 11.364L7.28 11.291L10.999 7.57798L11 21.255C11 21.635 11.282 21.948 11.648 21.998Z" fill="#00CFFF"/>
</svg>
